<svg width="111" height="23" viewBox="0 0 111 23" fill="none" xmlns="http://www.w3.org/2000/svg">
<path d="M16.1035 20.2974L15.7737 22.4862H0C0.652658 20.972 0.611438 20.1185 0.611438 19.0241V3.97793C0.611438 2.91795 0.652658 1.98875 0 0.515798H4.72662H15.389L15.4165 2.74588C15.1279 2.62887 14.8943 2.52562 14.6814 2.42926C14.1112 2.21589 13.3898 2.01628 12.641 2.02317C11.4456 2.02317 6.4304 2.02317 4.20449 2.02317V10.6269H14.1043L13.6165 12.3201H4.20449V20.9307C6.02507 20.9307 11.844 20.9307 13.1287 20.9307C14.6333 20.9582 16.131 20.1047 16.131 20.1047L16.0897 20.2906C16.0897 20.2974 16.0966 20.2974 16.1035 20.2974ZM39.8465 22.4862C40.0595 21.4056 40.0595 19.8776 39.8877 18.6318L38.4862 8.27979L30.833 22.4794H29.3765L21.5996 7.63967L20.0881 18.8589C19.9233 20.1529 19.8752 21.7911 20.0126 22.4862H17.2783C17.8073 21.3643 17.9378 20.8756 18.1851 19.031L20.6584 0.515798H21.9156L30.991 17.792L40.0595 0.515798H41.0076L43.5632 18.9897C43.8174 20.8274 44.0098 21.3574 44.5182 22.4862H39.8465ZM62.8819 22.4862L59.2408 14.44H51.9173L48.3242 22.4862H48.015H45.48H45.4662C46.3731 21.3574 46.6822 20.8343 47.3212 19.4302L55.8126 0.515798H56.7675L65.1216 18.9002C66.0147 20.6967 66.4337 21.2542 67.7116 22.4862H62.8819ZM85.7937 22.4862L82.1525 14.44H74.829L71.2359 22.4862H70.9336H68.3917H68.378C69.2848 21.3574 69.594 20.8343 70.2329 19.4302L78.7243 0.515798H79.6793L88.0402 18.9002C88.9333 20.6967 89.3523 21.2542 90.6302 22.4862H85.7937ZM106.555 22.5C104.363 20.4971 101.526 17.8402 97.9743 13.6279C96.9575 12.4371 96.243 12.2857 95.7828 12.2581V19.0241C95.7828 20.1116 95.7828 20.972 96.4011 22.4862H91.5783C92.2309 20.972 92.1897 20.1185 92.1897 19.0241V3.96416C92.1897 2.90419 92.2309 1.97499 91.5783 0.502032H96.3049C99.5338 0.502032 107.166 0.212947 107.166 6.53151C107.166 9.86975 104.522 11.6662 101.416 12.1205L100.496 12.21C100.496 12.21 110.567 22.0733 111 22.5H106.555ZM100.846 10.8609L100.839 10.8678C102.873 10.0969 103.56 8.16278 103.491 6.52463C103.415 4.94843 102.708 1.52071 95.7896 1.79603V11.1637C95.7896 11.1637 99.6644 11.3771 100.75 10.9022C100.812 10.8747 100.846 10.8609 100.846 10.8609ZM75.5297 12.9051H81.4449L78.4633 6.34567L75.5297 12.9051ZM52.6249 12.9051H58.54L55.5584 6.34567L52.6249 12.9051Z" fill="white" fill-opacity="0.6"/>
</svg>
