<svg width="121" height="21" viewBox="0 0 121 21" fill="none" xmlns="http://www.w3.org/2000/svg">
<path d="M13.89 4.72069e-05H18.72V21H9.328L4.828 0.181047V20.998H0V-0.00195312H9.42L13.89 20.817V4.72069e-05ZM34.169 4.72069e-05H24.689L20.279 21H25.05L25.921 16.829H32.942L33.81 21H38.581L34.169 4.72069e-05ZM26.729 13.081L29.429 0.181047L32.129 13.081H26.729ZM49.708 12.571L56.938 4.72069e-05H51.567L45.477 10.62V4.72069e-05H40.137V21H45.478V12.929H48.778L51.568 20.998H56.968L54.059 12.569H49.71L49.708 12.571ZM70.016 8.19105H66.356L63.956 12.061V4.72069e-05H58.616V21H63.957V12.3H70.017V21H75.358V4.72069e-05H70.016V8.18805V8.19105ZM77.935 21.001H91.225V17.101H83.276V12.21H89.635V8.31005H85.526L83.276 11.91V3.90005H91.225V4.72069e-05H77.936V21L77.935 21.001ZM93.323 21.001H106.61V17.101H98.661V12.21H105.02V8.31005H100.91L98.66 11.91V3.90005H106.61V4.72069e-05H93.32V21L93.323 21.001ZM114.052 17.101V4.72069e-05H108.71V21H121.01V17.1H114.049L114.052 17.101Z" fill="white" fill-opacity="0.6"/>
</svg>
