<svg width="46" height="46" viewBox="0 0 46 46" fill="none" xmlns="http://www.w3.org/2000/svg">
<path d="M30.6692 23V22.9981C30.6692 18.7649 27.237 15.3327 23.0038 15.3327C18.7706 15.3327 15.3384 18.7649 15.3384 22.9981C15.3384 27.2313 18.7706 30.6635 23.0038 30.6635C25.1195 30.6635 27.0358 29.8049 28.4233 28.4194C29.8088 27.0761 30.6692 25.1961 30.6692 23.115C30.6692 23.0747 30.6692 23.0345 30.6673 22.9942L30.6692 23ZM34.8085 23C34.7855 29.4753 29.5309 34.7165 23.0517 34.7165C16.5592 34.7165 11.295 29.4523 11.295 22.9598C11.295 16.4672 16.5592 11.203 23.0517 11.203C26.298 11.203 29.2377 12.5195 31.3649 14.6466C33.4901 16.7163 34.8104 19.6042 34.8104 22.8026C34.8104 22.8716 34.8104 22.9425 34.8085 23.0115V23.0019V23ZM38.0414 10.7239V10.7277C38.0414 12.2512 36.8054 13.4873 35.2819 13.4873C33.7584 13.4873 32.5223 12.2512 32.5223 10.7277C32.5223 9.20422 33.7584 7.96817 35.2819 7.96817C36.0446 7.96817 36.7345 8.2767 37.2327 8.77687C37.7233 9.25787 38.028 9.92859 38.028 10.6702V10.7258L38.0414 10.7239ZM23.0172 4.13164L20.7272 4.11631C19.3398 4.10609 18.2864 4.10609 17.5672 4.11631C16.8479 4.12653 15.8846 4.15656 14.6773 4.20638C13.5562 4.24471 12.4927 4.35586 11.4521 4.53216L11.592 4.513C10.7775 4.64714 10.0551 4.83878 9.36327 5.09365L9.44568 5.06682C7.44501 5.88127 5.88702 7.43734 5.09173 9.38627L5.07257 9.43801C4.84453 10.0474 4.65289 10.7699 4.52833 11.5134L4.51875 11.5843C4.36161 12.4831 4.25046 13.5467 4.21405 14.6294L4.21213 14.6696C4.16231 15.8782 4.13228 16.8415 4.12206 17.5595C4.11184 18.2775 4.11184 19.3308 4.12206 20.7195C4.13228 22.1083 4.13739 22.8716 4.13739 23.0096C4.13739 23.1476 4.13228 23.9109 4.12206 25.2996C4.11184 26.6883 4.11184 27.7417 4.12206 28.4597C4.13228 29.1777 4.16231 30.1409 4.21213 31.3495C4.25046 32.4706 4.36161 33.5342 4.53791 34.5747L4.51875 34.4348C4.65289 35.2493 4.84453 35.9718 5.0994 36.6636L5.07257 36.5812C5.88702 38.5818 7.44309 40.1398 9.39202 40.9351L9.44376 40.9543C10.0532 41.1823 10.7756 41.3739 11.5192 41.4985L11.5901 41.5081C12.4888 41.6652 13.5524 41.7764 14.6332 41.8128L14.6735 41.8147C15.882 41.8645 16.8453 41.8945 17.5633 41.9048C18.2813 41.915 19.3347 41.915 20.7234 41.9048L23 41.8588L25.29 41.8741C26.6775 41.8843 27.7308 41.8843 28.4501 41.8741C29.1694 41.8639 30.1326 41.8339 31.3399 41.784C32.461 41.7457 33.5246 41.6346 34.5652 41.4583L34.4253 41.4774C35.2397 41.3433 35.9622 41.1516 36.654 40.8968L36.5716 40.9236C38.5722 40.1091 40.1302 38.5531 40.9255 36.6041L40.9447 36.5524C41.1727 35.943 41.3644 35.2205 41.4889 34.477L41.4985 34.4061C41.6556 33.5073 41.7668 32.4438 41.8032 31.3629L41.8051 31.3227C41.8549 30.1141 41.885 29.1508 41.8952 28.4328C41.9054 27.7149 41.9054 26.6615 41.8952 25.2728C41.885 23.8841 41.8799 23.1207 41.8799 22.9828C41.8799 22.8448 41.885 22.0814 41.8952 20.6927C41.9054 19.304 41.9054 18.2507 41.8952 17.5327C41.885 16.8147 41.8549 15.8514 41.8051 14.6428C41.7668 13.5217 41.6556 12.4582 41.4793 11.4176L41.4985 11.5575C41.3644 10.743 41.1727 10.0206 40.9178 9.32878L40.9447 9.41118C40.1302 7.41051 38.5742 5.85252 36.6252 5.05724L36.5735 5.03808C35.9641 4.81003 35.2416 4.6184 34.4981 4.49383L34.4272 4.48425C33.5284 4.32711 32.4648 4.21596 31.384 4.17955L31.3438 4.17764C30.1352 4.12781 29.1719 4.09779 28.4539 4.08757C27.7359 4.07735 26.6826 4.07735 25.2939 4.08757L23.0172 4.13164ZM46 23C46 27.5711 45.9489 30.735 45.8467 32.4917C45.8563 32.6852 45.8639 32.9114 45.8639 33.1375C45.8639 40.1647 40.1666 45.862 33.1394 45.862C32.9113 45.862 32.6852 45.8563 32.461 45.8448L32.4917 45.8467C30.735 45.9489 27.5711 46 23 46C18.4289 46 15.265 45.9489 13.5083 45.8467C13.3148 45.8563 13.0887 45.8639 12.8625 45.8639C5.83528 45.8639 0.137977 40.1666 0.137977 33.1394C0.137977 32.9113 0.143726 32.6852 0.155224 32.461L0.153308 32.4917C0.0511026 30.735 0 27.5711 0 23C0 18.4289 0.0511026 15.265 0.153308 13.5083C0.143726 13.3148 0.136061 13.0887 0.136061 12.8625C0.136061 5.83528 5.83336 0.137977 12.8606 0.137977C13.0887 0.137977 13.3148 0.143726 13.539 0.155224L13.5083 0.153308C15.265 0.0511026 18.4289 0 23 0C27.5711 0 30.735 0.0511026 32.4917 0.153308C32.6852 0.143726 32.9113 0.136061 33.1375 0.136061C40.1647 0.136061 45.862 5.83336 45.862 12.8606C45.862 13.0887 45.8563 13.3148 45.8448 13.539L45.8467 13.5083C45.9489 15.2637 46 18.4276 46 23Z" fill="black"/>
</svg>
