<svg width="46" height="46" fill="none" xmlns="http://www.w3.org/2000/svg"><path d="M30.67 23v-.002a7.666 7.666 0 1 0-2.247 5.421 7.365 7.365 0 0 0 2.246-5.304c0-.04 0-.08-.002-.12l.002.005Zm4.139 0c-.023 6.475-5.278 11.717-11.757 11.717-6.493 0-11.757-5.265-11.757-11.757 0-6.493 5.264-11.757 11.757-11.757 3.246 0 6.186 1.317 8.313 3.444a11.348 11.348 0 0 1 3.445 8.156c0 .069 0 .14-.002.209V23Zm3.232-12.276v.004a2.76 2.76 0 1 1-.808-1.951c.49.48.795 1.152.795 1.893v.056l.013-.002ZM23.017 4.132l-2.29-.016c-1.387-.01-2.44-.01-3.16 0-.72.01-1.682.04-2.89.09a24.3 24.3 0 0 0-3.225.326l.14-.019c-.815.134-1.537.326-2.229.58l.083-.026a7.889 7.889 0 0 0-4.354 4.32l-.02.051c-.227.61-.42 1.332-.544 2.075l-.01.071a22.536 22.536 0 0 0-.304 3.045l-.002.04c-.05 1.21-.08 2.172-.09 2.89-.01.718-.01 1.772 0 3.16l.015 2.29-.015 2.29c-.01 1.39-.01 2.443 0 3.16.01.719.04 1.682.09 2.89.038 1.122.15 2.185.326 3.226l-.02-.14c.135.814.327 1.537.581 2.229l-.026-.083a7.89 7.89 0 0 0 4.319 4.354l.052.02c.61.227 1.332.419 2.075.544l.071.01a22.54 22.54 0 0 0 3.043.304l.04.002c1.209.05 2.172.08 2.89.09.718.01 1.772.01 3.16 0L23 41.859l2.29.015c1.387.01 2.44.01 3.16 0 .72-.01 1.683-.04 2.89-.09a24.115 24.115 0 0 0 3.225-.326l-.14.02a11.988 11.988 0 0 0 2.229-.581l-.082.027a7.89 7.89 0 0 0 4.353-4.32l.02-.052c.228-.609.42-1.331.544-2.075l.01-.07c.157-.9.268-1.963.304-3.044l.002-.04c.05-1.209.08-2.172.09-2.89.01-.718.01-1.771 0-3.16l-.015-2.29.015-2.29c.01-1.389.01-2.442 0-3.16s-.04-1.682-.09-2.89a24.113 24.113 0 0 0-.326-3.225l.02.14a11.979 11.979 0 0 0-.581-2.23l.027.083a7.889 7.889 0 0 0-4.32-4.354l-.051-.019c-.61-.228-1.332-.42-2.076-.544l-.07-.01a22.539 22.539 0 0 0-3.044-.304l-.04-.002c-1.209-.05-2.172-.08-2.89-.09-.718-.01-1.771-.01-3.16 0l-2.277.044ZM46 23c0 4.571-.051 7.735-.153 9.492.01.193.017.42.017.646 0 7.027-5.697 12.724-12.725 12.724-.228 0-.454-.006-.678-.017l.03.002c-1.756.102-4.92.153-9.491.153s-7.735-.051-9.492-.153c-.193.01-.42.017-.645.017-7.028 0-12.725-5.697-12.725-12.725 0-.228.006-.454.017-.678l-.002.03C.051 30.736 0 27.572 0 23s.051-7.735.153-9.492c-.01-.193-.017-.42-.017-.645C.136 5.835 5.833.138 12.861.138c.228 0 .454.006.678.017l-.03-.002C15.264.051 18.428 0 23 0s7.735.051 9.492.153c.193-.01.42-.017.646-.017 7.027 0 12.724 5.697 12.724 12.725 0 .228-.006.454-.017.678l.002-.03C45.949 15.263 46 18.427 46 23Z" fill="#000"/></svg>